<?xml version="1.0" standalone="no"?>
<!DOCTYPE svg PUBLIC "-//W3C//DTD SVG 20010904//EN"
 "http://www.w3.org/TR/2001/REC-SVG-20010904/DTD/svg10.dtd">
<svg version="1.0" xmlns="http://www.w3.org/2000/svg"
 width="500.000000pt" height="500.000000pt" viewBox="0 0 500.000000 500.000000"
 preserveAspectRatio="xMidYMid meet">
<metadata>
Created by potrace 1.16, written by Peter Selinger 2001-2019
</metadata>
<g transform="translate(0.000000,500.000000) scale(0.100000,-0.100000)"
fill="#000000" stroke="none">
<path d="M2031 3390 c-217 -58 -371 -186 -466 -385 -56 -117 -69 -177 -69
-305 1 -119 18 -200 66 -302 33 -69 32 -69 123 -98 22 -7 53 -23 68 -34 30
-22 67 -83 68 -113 0 -10 7 0 15 22 8 22 19 44 23 48 6 6 -21 39 -63 81 -80
80 -136 174 -162 277 -21 79 -23 215 -5 289 50 210 235 396 442 445 89 21 299
18 299 -4 0 -3 -19 -18 -43 -33 -120 -78 -227 -220 -267 -355 -12 -39 -14 -41
-38 -32 -30 11 -62 3 -62 -16 0 -17 31 -35 58 -35 15 0 18 -5 14 -27 -3 -14
-11 -38 -18 -52 -11 -21 -11 -29 0 -46 7 -11 16 -52 19 -91 5 -63 4 -71 -11
-70 -23 1 -29 -42 -7 -51 9 -3 20 -1 24 6 4 6 19 -19 35 -59 15 -39 24 -75 20
-82 -4 -6 -3 -8 4 -5 5 4 22 -13 36 -38 26 -44 28 -45 77 -45 l50 0 -40 53
c-81 109 -121 230 -121 367 0 177 59 319 180 440 135 135 268 190 454 190 107
0 133 -8 123 -34 -9 -23 21 -94 44 -107 26 -13 25 -65 0 -79 -49 -26 -32 -90
24 -90 18 0 35 5 37 11 3 9 9 9 25 0 12 -6 32 -11 46 -11 27 0 72 -43 62 -60
-12 -20 4 -56 30 -68 40 -18 81 -14 110 11 23 19 25 26 16 49 -8 21 -6 29 9
43 19 17 20 16 40 -29 42 -99 55 -159 54 -261 0 -134 -33 -235 -115 -358 -61
-90 -61 -89 -31 -136 1 -3 9 5 18 18 9 12 33 32 53 45 44 28 97 123 132 236
19 62 23 97 23 200 0 110 -4 135 -28 205 -15 44 -42 107 -60 140 -25 44 -32
68 -29 92 5 34 -12 50 -52 49 -17 -1 -20 -7 -19 -41 1 -25 -3 -43 -12 -48 -8
-4 -14 -16 -14 -26 0 -49 -64 -53 -90 -6 -16 27 -21 30 -62 27 -54 -4 -60 2
-62 69 -1 43 -6 53 -34 75 -30 24 -32 30 -30 77 3 48 1 52 -27 66 -20 11 -70
17 -154 19 -104 4 -137 1 -212 -19 -89 -23 -89 -23 -146 -4 -87 29 -275 31
-372 5z"/>
<path d="M2665 2985 c-31 -30 -32 -73 -4 -109 36 -45 106 -33 129 24 33 79
-65 146 -125 85z"/>
<path d="M2841 2734 c-12 -15 -21 -37 -21 -49 0 -12 9 -34 21 -49 16 -20 29
-26 59 -26 30 0 43 6 59 26 12 15 21 37 21 49 0 12 -9 34 -21 49 -16 20 -29
26 -59 26 -30 0 -43 -6 -59 -26z"/>
<path d="M1710 2720 c-20 -20 -26 -65 -12 -87 12 -19 64 -35 92 -28 37 10 60
35 60 67 0 41 -32 68 -80 68 -27 0 -47 -7 -60 -20z"/>
<path d="M2231 2714 c-12 -15 -21 -32 -21 -39 0 -7 9 -24 21 -39 16 -21 29
-26 64 -26 75 0 107 66 53 113 -32 27 -92 23 -117 -9z"/>
<path d="M2986 2478 c-51 -72 30 -153 102 -102 16 11 22 25 22 54 0 29 -6 43
-22 54 -33 24 -84 20 -102 -6z"/>
<path d="M1490 2242 l-35 -17 -6 -105 c-9 -141 1 -327 16 -340 7 -6 38 -16 68
-22 151 -32 284 71 248 192 -7 24 -22 47 -39 57 -15 9 -29 18 -31 20 -2 1 11
14 28 28 38 32 42 82 11 133 -40 66 -179 95 -260 54z"/>
<path d="M3045 2253 c-36 -9 -73 -54 -86 -105 l-13 -49 -28 56 c-38 74 -81 97
-133 72 -53 -25 -66 -61 -72 -206 -7 -152 6 -221 45 -252 19 -15 35 -19 57
-15 47 10 57 31 49 107 -8 88 3 106 26 39 38 -111 73 -105 124 20 14 34 15 33
13 -46 -2 -68 1 -85 17 -103 27 -29 76 -28 105 3 23 24 23 28 19 213 -4 206
-14 244 -64 263 -27 10 -27 11 -59 3z"/>
<path d="M2082 2210 c-23 -10 -45 -26 -48 -35 -6 -13 -9 -12 -18 7 -10 19 -20
23 -55 22 -24 0 -49 -8 -58 -17 -37 -37 -58 -302 -29 -370 29 -69 82 -86 117
-37 23 32 39 130 39 244 0 84 1 88 18 74 9 -9 32 -19 49 -23 l33 -7 -7 -118
c-7 -132 2 -170 43 -189 41 -18 71 -13 94 17 21 25 22 35 17 137 -3 61 -8 117
-11 126 -6 13 1 17 36 22 101 14 88 127 -18 156 -62 17 -153 13 -202 -9z"/>
<path d="M2457 2223 c-51 -6 -64 -29 -78 -147 -25 -212 15 -327 113 -326 60 1
138 62 138 109 0 18 -31 41 -56 41 -20 0 -24 5 -24 30 0 25 4 30 23 30 39 0
67 27 67 65 0 29 -4 36 -25 41 -14 3 -36 3 -50 0 -23 -6 -25 -4 -25 29 0 30 4
36 28 41 53 13 78 54 50 82 -12 12 -77 13 -161 5z"/>
<path d="M3315 2221 c-52 -8 -61 -27 -74 -166 -23 -231 30 -330 156 -296 45
12 93 60 93 91 0 26 -27 50 -56 50 -20 0 -24 5 -24 29 0 25 5 30 35 35 47 9
73 46 56 83 -11 23 -16 25 -56 20 l-45 -5 0 34 c0 25 5 34 23 39 50 14 67 28
67 56 0 15 -7 29 -16 33 -19 7 -103 6 -159 -3z"/>
</g>
</svg>
